/* XPM */
static char *result[] = {
/* columns rows colors chars-per-pixel */
"32 32 7 1 ",
"  c black",
". c #21110D",
"X c #342319",
"o c #503625",
"O c #755338",
"+ c #509B66",
"@ c #677598",
/* pixels */
"++++++++++++++++++++++++++++++++",
"++++++++++++++++++++++++++++++++",
"++++++++++++++++++++++++++++++++",
"++++++++++++++++++++++++++++++++",
"++++++++++++++++++++++++++++++++",
"++++++++++++++++++++++++++++++++",
"++++++++++++++++++++++++++++++++",
"++++++++++++++++++++++++++++++++",
"++++++++@..............@++++++++",
"++++++++.OOOOOOOOOOOOOO.++++++++",
"++++++++.OOOOOOOOOOOOOO.++++++++",
"++++++++.oXXXXXXXXXXXXo.++++++++",
"++++++++.OXo++++++++++O.++++++++",
"++++++++.OXo++++++++++O.++++++++",
"++++++++.OXo++++++++++O.++++++++",
"++++++++.OXo++++++++++O.++++++++",
"++++++++.OXo++++++++++O.++++++++",
"++++++++.OXo++++++++++O.++++++++",
"++++++++.OXo++++++++++O.++++++++",
"++++++++.OXo++++++++++O.++++++++",
"++++++++.OXo++++++++++O.++++++++",
"++++++++.OXo++++++++++O.++++++++",
"++++++++.   ++++++++++ .++++++++",
"++++++++ ++++++++++++++ ++++++++",
"++++++++++++++++++++++++++++++++",
"++++++++++++++++++++++++++++++++",
"++++++++++++++++++++++++++++++++",
"++++++++++++++++++++++++++++++++",
"++++++++++++++++++++++++++++++++",
"++++++++++++++++++++++++++++++++",
"++++++++++++++++++++++++++++++++",
"++++++++++++++++++++++++++++++++"
};
