/* XPM */
static char *result[] = {
/* columns rows colors chars-per-pixel */
"32 32 9 1 ",
"  c black",
". c #21110D",
"X c #342319",
"o c #503625",
"O c #755338",
"+ c #509B66",
"@ c #D99945",
"# c #E9CE7C",
"$ c #677598",
/* pixels */
"++++++++++++++++++++++++++++++++",
"++++++++++++++++++++++++++++++++",
"++++++++++++++++++++++++++++++++",
"++++++++++++++++++++++++++++++++",
"++++++++++++++++++++++++++++++++",
"++++++++++++++++++++++++++++++++",
"++++++++++++++++++++++++++++++++",
"++++++++++++++++++++++++++++++++",
"++++++++$..............$++++++++",
"++++++++.OOOOOOOOOOOOOO.++++++++",
"++++++++.OOOOOOOOOOOOOO.++++++++",
"++++++++.oXXXXXXXXXXXXo.++++++++",
"++++++++.OXooXooooXooXO.++++++++",
"++++++++.OXoooooooXooXO.++++++++",
"++++++++.OXooooooooooXO.++++++++",
"++++++++.OXooooooooooXO.++++++++",
"++++++++.OXoooooooo#@XO.++++++++",
"++++++++.OXoooooooo@@XO.++++++++",
"++++++++.OXooooooooXXXO.++++++++",
"++++++++.OXooXoooooooXO.++++++++",
"++++++++.OXooXoooooooXO.++++++++",
"++++++++.OXooXooooXooXO.++++++++",
"++++++++.              .++++++++",
"++++++++ ++++++++++++++ ++++++++",
"++++++++++++++++++++++++++++++++",
"++++++++++++++++++++++++++++++++",
"++++++++++++++++++++++++++++++++",
"++++++++++++++++++++++++++++++++",
"++++++++++++++++++++++++++++++++",
"++++++++++++++++++++++++++++++++",
"++++++++++++++++++++++++++++++++",
"++++++++++++++++++++++++++++++++"
};
