/* XPM */
static char *result[] = {
/* columns rows colors chars-per-pixel */
"32 32 8 1 ",
"  c #21110D",
". c #503625",
"X c #114517",
"o c #347B2C",
"O c #755338",
"+ c #3A714B",
"@ c #53A03B",
"# c #509B66",
/* pixels */
"################################",
"################################",
"########  ##############  ######",
"######  @o ###########  @o #####",
"##### O oo  ######### O oo  ####",
"#### OOXooX. ####### OOXooX. ###",
"#### O..XXO. ####### O..XXO. ###",
"### .O.OO.OOO ##### .O.OO.OOO ##",
"##+ ...OO..OO ####+ ...OO..OO ##",
"##+ ..OOOO.OO ####+ ..OOOO.OO ##",
"##++ OOOOO.OO ####++ OOOOO.OO ##",
"###+ OOOOO... #####+ OOOOO... ##",
"###++ OOO... ######++ OOO... ###",
"####++      ########++      ####",
"#####++++++##########++++++#####",
"#######++##############++#######",
"################################",
"########  ##############  ######",
"######  @o ###########  @o #####",
"##### O oo  ######### O oo  ####",
"#### OOXooX. ####### OOXooX. ###",
"#### O..XXO. ####### O..XXO. ###",
"### .O.OO.OOO ##### .O.OO.OOO ##",
"##+ ...OO..OO ####+ ...OO..OO ##",
"##+ ..OOOO.OO ####+ ..OOOO.OO ##",
"##++ OOOOO.OO ####++ OOOOO.OO ##",
"###+ OOOOO... #####+ OOOOO... ##",
"###++ OOO... ######++ OOO... ###",
"####++      ########++      ####",
"#####++++++##########++++++#####",
"#######++##############++#######",
"################################"
};
